<svg width="1063" height="595" viewBox="0 0 1063 595" fill="none" xmlns="http://www.w3.org/2000/svg">
<path d="M349.049 434.014C323.143 433.394 295.372 447.909 288 472.751L428.624 467.027C425.965 465.188 423.293 463.373 420.61 461.581C399.034 447.23 374.955 434.634 349.049 434.014Z" fill="#F2F2F2"/>
<path d="M140.625 513.027C159.325 525.953 177.575 539.749 198.412 548.722C250.006 570.942 309.399 560.579 363.687 546.137C417.974 531.695 473.39 513.345 529.07 520.789C560.643 525.01 590.452 537.363 620.928 546.63C651.404 555.898 684.195 562.104 714.944 553.783C745.692 545.462 773.427 519.077 774.231 487.233C542.098 444.314 326.885 443.039 140.625 513.027Z" fill="#F2F2F2"/>
<path d="M452.336 298.868H306.976C304.903 298.87 302.914 299.694 301.448 301.16C299.982 302.626 299.158 304.615 299.156 306.688V359.648C299.158 361.722 299.982 363.71 301.448 365.176C302.914 366.643 304.903 367.467 306.976 367.468H452.336C454.41 367.467 456.398 366.643 457.864 365.176C459.331 363.71 460.155 361.722 460.156 359.648V306.688C460.155 304.615 459.331 302.626 457.864 301.16C456.398 299.694 454.41 298.87 452.336 298.868Z" fill="#E6E6E6"/>
<path d="M313.656 298.868H309.656V367.468H313.656V298.868Z" fill="#CCCCCC"/>
<path d="M330.656 298.868H326.656V367.468H330.656V298.868Z" fill="#CCCCCC"/>
<path d="M347.656 298.868H343.656V367.468H347.656V298.868Z" fill="#CCCCCC"/>
<path d="M364.656 298.868H360.656V367.468H364.656V298.868Z" fill="#CCCCCC"/>
<path d="M381.656 298.868H377.656V367.468H381.656V298.868Z" fill="#CCCCCC"/>
<path d="M398.656 298.868H394.656V367.468H398.656V298.868Z" fill="#CCCCCC"/>
<path d="M415.656 298.868H411.656V367.468H415.656V298.868Z" fill="#CCCCCC"/>
<path d="M432.656 298.868H428.656V367.468H432.656V298.868Z" fill="#CCCCCC"/>
<path d="M449.656 298.868H445.656V367.468H449.656V298.868Z" fill="#CCCCCC"/>
<path d="M602.388 174.995L584.542 136.599C583.232 133.782 581.145 131.398 578.526 129.727C575.907 128.056 572.865 127.168 569.759 127.168H548.731C550.317 124.433 551.154 121.327 551.158 118.165C551.163 115.002 550.334 111.895 548.755 109.154C547.176 106.414 544.903 104.138 542.165 102.556C539.427 100.974 536.321 100.14 533.158 100.14C529.996 100.14 526.889 100.974 524.151 102.556C521.413 104.138 519.141 106.414 517.562 109.154C515.983 111.895 515.154 115.002 515.158 118.165C515.163 121.327 516 124.433 517.586 127.168H496.558C493.452 127.168 490.41 128.056 487.791 129.727C485.172 131.398 483.084 133.782 481.775 136.599L463.929 174.995C462.774 177.48 462.264 180.215 462.446 182.948C462.628 185.681 463.495 188.325 464.969 190.634C466.442 192.943 468.473 194.844 470.876 196.161C473.278 197.478 475.973 198.168 478.712 198.168H528.158V384.168H538.158V198.168H587.605C590.344 198.168 593.039 197.478 595.441 196.161C597.843 194.844 599.875 192.943 601.348 190.634C602.821 188.325 603.689 185.681 603.871 182.948C604.052 180.215 603.542 177.48 602.388 174.995Z" fill="#E6E6E6"/>
<path d="M809.336 298.868H663.976C661.903 298.87 659.914 299.694 658.448 301.16C656.982 302.626 656.158 304.615 656.156 306.688V359.648C656.158 361.722 656.982 363.71 658.448 365.176C659.914 366.643 661.903 367.467 663.976 367.468H809.336C811.41 367.467 813.398 366.643 814.864 365.176C816.331 363.71 817.155 361.722 817.156 359.648V306.688C817.155 304.615 816.331 302.626 814.864 301.16C813.398 299.694 811.41 298.87 809.336 298.868Z" fill="#E6E6E6"/>
<path d="M670.656 298.868H666.656V367.468H670.656V298.868Z" fill="#CCCCCC"/>
<path d="M687.656 298.868H683.656V367.468H687.656V298.868Z" fill="#CCCCCC"/>
<path d="M704.656 298.868H700.656V367.468H704.656V298.868Z" fill="#CCCCCC"/>
<path d="M721.656 298.868H717.656V367.468H721.656V298.868Z" fill="#CCCCCC"/>
<path d="M738.656 298.868H734.656V367.468H738.656V298.868Z" fill="#CCCCCC"/>
<path d="M755.656 298.868H751.656V367.468H755.656V298.868Z" fill="#CCCCCC"/>
<path d="M772.656 298.868H768.656V367.468H772.656V298.868Z" fill="#CCCCCC"/>
<path d="M789.656 298.868H785.656V367.468H789.656V298.868Z" fill="#CCCCCC"/>
<path d="M806.656 298.868H802.656V367.468H806.656V298.868Z" fill="#CCCCCC"/>
<path d="M647.336 298.868H501.976C499.903 298.87 497.914 299.694 496.448 301.16C494.982 302.626 494.158 304.615 494.156 306.688V359.648C494.158 361.722 494.982 363.71 496.448 365.176C497.914 366.643 499.903 367.467 501.976 367.468H647.336C649.41 367.467 651.398 366.643 652.864 365.176C654.331 363.71 655.155 361.722 655.156 359.648V306.688C655.155 304.615 654.331 302.626 652.864 301.16C651.398 299.694 649.41 298.87 647.336 298.868Z" fill="#E6E6E6"/>
<path d="M508.656 298.868H504.656V367.468H508.656V298.868Z" fill="#CCCCCC"/>
<path d="M525.656 298.868H521.656V367.468H525.656V298.868Z" fill="#CCCCCC"/>
<path d="M542.656 298.868H538.656V367.468H542.656V298.868Z" fill="#CCCCCC"/>
<path d="M559.656 298.868H555.656V367.468H559.656V298.868Z" fill="#CCCCCC"/>
<path d="M576.656 298.868H572.656V367.468H576.656V298.868Z" fill="#CCCCCC"/>
<path d="M593.656 298.868H589.656V367.468H593.656V298.868Z" fill="#CCCCCC"/>
<path d="M610.656 298.868H606.656V367.468H610.656V298.868Z" fill="#CCCCCC"/>
<path d="M627.656 298.868H623.656V367.468H627.656V298.868Z" fill="#CCCCCC"/>
<path d="M644.656 298.868H640.656V367.468H644.656V298.868Z" fill="#CCCCCC"/>
<path d="M820.336 229.868H674.976C672.903 229.87 670.914 230.694 669.448 232.16C667.982 233.626 667.158 235.615 667.156 237.688V290.648C667.158 292.722 667.982 294.71 669.448 296.176C670.914 297.643 672.903 298.467 674.976 298.468H820.336C822.41 298.467 824.398 297.643 825.864 296.176C827.331 294.71 828.155 292.722 828.156 290.648V237.688C828.155 235.615 827.331 233.626 825.864 232.16C824.398 230.694 822.41 229.87 820.336 229.868Z" fill="#E6E6E6"/>
<path d="M681.656 229.868H677.656V298.468H681.656V229.868Z" fill="#CCCCCC"/>
<path d="M698.656 229.868H694.656V298.468H698.656V229.868Z" fill="#CCCCCC"/>
<path d="M715.656 229.868H711.656V298.468H715.656V229.868Z" fill="#CCCCCC"/>
<path d="M732.656 229.868H728.656V298.468H732.656V229.868Z" fill="#CCCCCC"/>
<path d="M749.656 229.868H745.656V298.468H749.656V229.868Z" fill="#CCCCCC"/>
<path d="M766.656 229.868H762.656V298.468H766.656V229.868Z" fill="#CCCCCC"/>
<path d="M783.656 229.868H779.656V298.468H783.656V229.868Z" fill="#CCCCCC"/>
<path d="M800.656 229.868H796.656V298.468H800.656V229.868Z" fill="#CCCCCC"/>
<path d="M817.656 229.868H813.656V298.468H817.656V229.868Z" fill="#CCCCCC"/>
<path d="M777.336 303.868H631.976C629.903 303.87 627.914 304.694 626.448 306.16C624.982 307.626 624.158 309.615 624.156 311.688V364.648C624.158 366.722 624.982 368.71 626.448 370.176C627.914 371.643 629.903 372.467 631.976 372.468H777.336C779.41 372.467 781.398 371.643 782.864 370.176C784.331 368.71 785.155 366.722 785.156 364.648V311.688C785.155 309.615 784.331 307.626 782.864 306.16C781.398 304.694 779.41 303.87 777.336 303.868Z" fill="#6C63FF"/>
<path d="M638.656 303.868H634.656V372.468H638.656V303.868Z" fill="#3F3D56"/>
<path d="M655.656 303.868H651.656V372.468H655.656V303.868Z" fill="#3F3D56"/>
<path d="M672.656 303.868H668.656V372.468H672.656V303.868Z" fill="#3F3D56"/>
<path d="M689.656 303.868H685.656V372.468H689.656V303.868Z" fill="#3F3D56"/>
<path d="M706.656 303.868H702.656V372.468H706.656V303.868Z" fill="#3F3D56"/>
<path d="M723.656 303.868H719.656V372.468H723.656V303.868Z" fill="#3F3D56"/>
<path d="M740.656 303.868H736.656V372.468H740.656V303.868Z" fill="#3F3D56"/>
<path d="M757.656 303.868H753.656V372.468H757.656V303.868Z" fill="#3F3D56"/>
<path d="M774.656 303.868H770.656V372.468H774.656V303.868Z" fill="#3F3D56"/>
<path d="M594.336 303.868H448.976C446.903 303.87 444.914 304.694 443.448 306.16C441.982 307.626 441.158 309.615 441.156 311.688V364.648C441.158 366.722 441.982 368.71 443.448 370.176C444.914 371.643 446.903 372.467 448.976 372.468H594.336C596.41 372.467 598.398 371.643 599.864 370.176C601.331 368.71 602.155 366.722 602.156 364.648V311.688C602.155 309.615 601.331 307.626 599.864 306.16C598.398 304.694 596.41 303.87 594.336 303.868Z" fill="#6C63FF"/>
<path d="M455.656 303.868H451.656V372.468H455.656V303.868Z" fill="#3F3D56"/>
<path d="M472.656 303.868H468.656V372.468H472.656V303.868Z" fill="#3F3D56"/>
<path d="M489.656 303.868H485.656V372.468H489.656V303.868Z" fill="#3F3D56"/>
<path d="M506.656 303.868H502.656V372.468H506.656V303.868Z" fill="#3F3D56"/>
<path d="M523.656 303.868H519.656V372.468H523.656V303.868Z" fill="#3F3D56"/>
<path d="M540.656 303.868H536.656V372.468H540.656V303.868Z" fill="#3F3D56"/>
<path d="M557.656 303.868H553.656V372.468H557.656V303.868Z" fill="#3F3D56"/>
<path d="M574.656 303.868H570.656V372.468H574.656V303.868Z" fill="#3F3D56"/>
<path d="M591.656 303.868H587.656V372.468H591.656V303.868Z" fill="#3F3D56"/>
<path d="M649.336 234.868H503.976C501.903 234.87 499.914 235.694 498.448 237.16C496.982 238.626 496.158 240.615 496.156 242.688V295.648C496.158 297.722 496.982 299.71 498.448 301.176C499.914 302.643 501.903 303.467 503.976 303.468H649.336C651.41 303.467 653.398 302.643 654.864 301.176C656.331 299.71 657.155 297.722 657.156 295.648V242.688C657.155 240.615 656.331 238.626 654.864 237.16C653.398 235.694 651.41 234.87 649.336 234.868Z" fill="#6C63FF"/>
<path d="M510.656 234.868H506.656V303.468H510.656V234.868Z" fill="#3F3D56"/>
<path d="M527.656 234.868H523.656V303.468H527.656V234.868Z" fill="#3F3D56"/>
<path d="M544.656 234.868H540.656V303.468H544.656V234.868Z" fill="#3F3D56"/>
<path d="M561.656 234.868H557.656V303.468H561.656V234.868Z" fill="#3F3D56"/>
<path d="M578.656 234.868H574.656V303.468H578.656V234.868Z" fill="#3F3D56"/>
<path d="M595.656 234.868H591.656V303.468H595.656V234.868Z" fill="#3F3D56"/>
<path d="M612.656 234.868H608.656V303.468H612.656V234.868Z" fill="#3F3D56"/>
<path d="M629.656 234.868H625.656V303.468H629.656V234.868Z" fill="#3F3D56"/>
<path d="M646.656 234.868H642.656V303.468H646.656V234.868Z" fill="#3F3D56"/>
<path d="M399.336 303.868H253.976C251.903 303.87 249.914 304.694 248.448 306.16C246.982 307.626 246.158 309.615 246.156 311.688V364.648C246.158 366.722 246.982 368.71 248.448 370.176C249.914 371.643 251.903 372.467 253.976 372.468H399.336C401.41 372.467 403.398 371.643 404.864 370.176C406.331 368.71 407.155 366.722 407.156 364.648V311.688C407.155 309.615 406.331 307.626 404.864 306.16C403.398 304.694 401.41 303.87 399.336 303.868Z" fill="#6C63FF"/>
<path d="M260.656 303.868H256.656V372.468H260.656V303.868Z" fill="#3F3D56"/>
<path d="M277.656 303.868H273.656V372.468H277.656V303.868Z" fill="#3F3D56"/>
<path d="M294.656 303.868H290.656V372.468H294.656V303.868Z" fill="#3F3D56"/>
<path d="M311.656 303.868H307.656V372.468H311.656V303.868Z" fill="#3F3D56"/>
<path d="M328.656 303.868H324.656V372.468H328.656V303.868Z" fill="#3F3D56"/>
<path d="M345.656 303.868H341.656V372.468H345.656V303.868Z" fill="#3F3D56"/>
<path d="M362.656 303.868H358.656V372.468H362.656V303.868Z" fill="#3F3D56"/>
<path d="M379.656 303.868H375.656V372.468H379.656V303.868Z" fill="#3F3D56"/>
<path d="M396.656 303.868H392.656V372.468H396.656V303.868Z" fill="#3F3D56"/>
<path d="M435.336 234.868H289.976C287.903 234.87 285.914 235.694 284.448 237.16C282.982 238.626 282.158 240.615 282.156 242.688V295.648C282.158 297.722 282.982 299.71 284.448 301.176C285.914 302.643 287.903 303.467 289.976 303.468H435.336C437.41 303.467 439.398 302.643 440.864 301.176C442.331 299.71 443.155 297.722 443.156 295.648V242.688C443.155 240.615 442.331 238.626 440.864 237.16C439.398 235.694 437.41 234.87 435.336 234.868Z" fill="#6C63FF"/>
<path d="M296.656 234.868H292.656V303.468H296.656V234.868Z" fill="#3F3D56"/>
<path d="M313.656 234.868H309.656V303.468H313.656V234.868Z" fill="#3F3D56"/>
<path d="M330.656 234.868H326.656V303.468H330.656V234.868Z" fill="#3F3D56"/>
<path d="M347.656 234.868H343.656V303.468H347.656V234.868Z" fill="#3F3D56"/>
<path d="M364.656 234.868H360.656V303.468H364.656V234.868Z" fill="#3F3D56"/>
<path d="M381.656 234.868H377.656V303.468H381.656V234.868Z" fill="#3F3D56"/>
<path d="M398.656 234.868H394.656V303.468H398.656V234.868Z" fill="#3F3D56"/>
<path d="M415.656 234.868H411.656V303.468H415.656V234.868Z" fill="#3F3D56"/>
<path d="M432.656 234.868H428.656V303.468H432.656V234.868Z" fill="#3F3D56"/>
<path d="M905.313 376.518C905.072 375.654 904.762 374.81 904.386 373.995L886.54 335.599C885.23 332.782 883.143 330.398 880.524 328.727C877.905 327.056 874.863 326.168 871.757 326.168H798.556C795.449 326.168 792.408 327.056 789.789 328.727C787.169 330.398 785.082 332.782 783.773 335.599L769.1 367.168H350.748L336.54 336.599C335.23 333.782 333.143 331.398 330.524 329.727C327.905 328.056 324.863 327.168 321.756 327.168H248.556C245.746 327.17 242.985 327.898 240.541 329.283L228.233 307.305C227.42 305.854 226.149 304.713 224.619 304.062C223.089 303.41 221.385 303.285 219.776 303.705C218.166 304.124 216.742 305.066 215.725 306.383C214.708 307.699 214.156 309.315 214.156 310.979V483.586C214.156 486.157 214.663 488.704 215.647 491.08C216.631 493.456 218.073 495.614 219.892 497.433C221.71 499.251 223.869 500.694 226.245 501.678C228.621 502.662 231.167 503.168 233.739 503.168H793.917C796.525 503.168 799.107 502.647 801.511 501.636C803.916 500.624 806.094 499.142 807.917 497.277L902.616 400.443C905.693 397.341 907.633 393.291 908.122 388.949C908.611 384.608 907.622 380.228 905.313 376.518Z" fill="#3F3D56"/>
<path d="M806.755 364.668H797.558C795.595 364.666 793.714 363.886 792.327 362.498C790.939 361.111 790.158 359.229 790.156 357.267V347.07C790.158 345.108 790.939 343.226 792.327 341.839C793.714 340.451 795.595 339.671 797.558 339.668H806.755C808.717 339.671 810.598 340.451 811.986 341.839C813.374 343.226 814.154 345.108 814.156 347.07V357.267C814.154 359.229 813.373 361.111 811.986 362.498C810.598 363.886 808.717 364.666 806.755 364.668Z" fill="white"/>
<path d="M839.755 364.668H830.558C828.595 364.666 826.714 363.886 825.327 362.498C823.939 361.111 823.158 359.229 823.156 357.267V347.07C823.158 345.108 823.939 343.226 825.327 341.839C826.714 340.451 828.595 339.671 830.558 339.668H839.755C841.717 339.671 843.598 340.451 844.986 341.839C846.374 343.226 847.154 345.108 847.156 347.07V357.267C847.154 359.229 846.373 361.111 844.986 362.498C843.598 363.886 841.717 364.666 839.755 364.668Z" fill="white"/>
<path d="M872.755 364.668H863.558C861.595 364.666 859.714 363.886 858.327 362.498C856.939 361.111 856.158 359.229 856.156 357.267V347.07C856.158 345.108 856.939 343.226 858.327 341.839C859.714 340.451 861.595 339.671 863.558 339.668H872.755C874.717 339.671 876.598 340.451 877.986 341.839C879.374 343.226 880.154 345.108 880.156 347.07V357.267C880.154 359.229 879.373 361.111 877.986 362.498C876.598 363.886 874.717 364.666 872.755 364.668Z" fill="white"/>
<path d="M504.755 165.668H495.558C493.595 165.666 491.714 164.886 490.327 163.498C488.939 162.111 488.158 160.229 488.156 158.267V148.07C488.158 146.108 488.939 144.226 490.327 142.839C491.714 141.451 493.595 140.671 495.558 140.668H504.755C506.717 140.671 508.598 141.451 509.986 142.839C511.374 144.226 512.154 146.108 512.156 148.07V158.267C512.154 160.229 511.373 162.111 509.986 163.498C508.598 164.886 506.717 165.666 504.755 165.668Z" fill="white"/>
<path d="M537.755 165.668H528.558C526.595 165.666 524.714 164.886 523.327 163.498C521.939 162.111 521.158 160.229 521.156 158.267V148.07C521.158 146.108 521.939 144.226 523.327 142.839C524.714 141.451 526.595 140.671 528.558 140.668H537.755C539.717 140.671 541.598 141.451 542.986 142.839C544.374 144.226 545.154 146.108 545.156 148.07V158.267C545.154 160.229 544.373 162.111 542.986 163.498C541.598 164.886 539.717 165.666 537.755 165.668Z" fill="white"/>
<path d="M570.755 165.668H561.558C559.595 165.666 557.714 164.886 556.327 163.498C554.939 162.111 554.158 160.229 554.156 158.267V148.07C554.158 146.108 554.939 144.226 556.327 142.839C557.714 141.451 559.595 140.671 561.558 140.668H570.755C572.717 140.671 574.598 141.451 575.986 142.839C577.374 144.226 578.154 146.108 578.156 148.07V158.267C578.154 160.229 577.373 162.111 575.986 163.498C574.598 164.886 572.717 165.666 570.755 165.668Z" fill="white"/>
<path d="M256.755 365.668H247.558C245.595 365.666 243.714 364.886 242.327 363.498C240.939 362.111 240.158 360.229 240.156 358.267V348.07C240.158 346.108 240.939 344.226 242.327 342.839C243.714 341.451 245.595 340.671 247.558 340.668H256.755C258.717 340.671 260.598 341.451 261.986 342.839C263.374 344.226 264.154 346.108 264.156 348.07V358.267C264.154 360.229 263.374 362.111 261.986 363.498C260.598 364.886 258.717 365.666 256.755 365.668Z" fill="white"/>
<path d="M289.755 365.668H280.558C278.595 365.666 276.714 364.886 275.327 363.498C273.939 362.111 273.158 360.229 273.156 358.267V348.07C273.158 346.108 273.939 344.226 275.327 342.839C276.714 341.451 278.595 340.671 280.558 340.668H289.755C291.717 340.671 293.598 341.451 294.986 342.839C296.374 344.226 297.154 346.108 297.156 348.07V358.267C297.154 360.229 296.374 362.111 294.986 363.498C293.598 364.886 291.717 365.666 289.755 365.668Z" fill="white"/>
<path d="M322.755 365.668H313.558C311.595 365.666 309.714 364.886 308.327 363.498C306.939 362.111 306.158 360.229 306.156 358.267V348.07C306.158 346.108 306.939 344.226 308.327 342.839C309.714 341.451 311.595 340.671 313.558 340.668H322.755C324.717 340.671 326.598 341.451 327.986 342.839C329.374 344.226 330.154 346.108 330.156 348.07V358.267C330.154 360.229 329.374 362.111 327.986 363.498C326.598 364.886 324.717 365.666 322.755 365.668Z" fill="white"/>
<path d="M199.678 470.983C173.772 470.363 146 484.879 138.629 509.721L279.253 503.996C276.594 502.158 273.922 500.343 271.239 498.55C249.663 484.199 225.583 471.603 199.678 470.983Z" fill="#6C63FF"/>
<path d="M279.254 503.996C297.954 516.923 316.204 530.718 337.04 539.692C388.635 561.912 448.028 551.549 502.316 537.107C556.603 522.665 612.019 504.315 667.699 511.758C699.272 515.979 729.08 528.332 759.557 537.6C790.033 546.867 822.824 553.073 853.573 544.752C884.321 536.432 912.056 510.047 912.859 478.203C680.727 435.283 465.514 434.009 279.254 503.996Z" fill="#6C63FF"/>
</svg>
