<svg width="363" height="439" viewBox="0 0 363 439" fill="none" xmlns="http://www.w3.org/2000/svg">
<path d="M336.48 37.094H50.52C40.03 37.094 31.5 45.624 31.5 56.114V252.074C31.5 262.564 40.03 271.094 50.52 271.094H336.48C346.97 271.094 355.5 262.564 355.5 252.074V56.114C355.5 45.624 346.97 37.094 336.48 37.094Z" fill="#F2F2F2"/>
<path d="M305.457 52.188H19.4966C9.00659 52.188 0.476562 60.718 0.476562 71.2079V267.168C0.476562 277.658 9.00659 286.188 19.4966 286.188H305.457C315.947 286.188 324.477 277.658 324.477 267.168V71.2079C324.477 60.718 315.947 52.188 305.457 52.188ZM322.477 209.492C322.477 250.745 289.034 284.188 247.78 284.188H19.4966C10.0967 284.188 2.47656 276.568 2.47656 267.168V71.2079C2.47656 61.8081 10.0967 54.188 19.4965 54.188H305.457C314.856 54.188 322.477 61.8081 322.477 71.208V209.492Z" fill="#3F3D56"/>
<path d="M41.3213 243.721L39.6289 242.655C40.729 240.907 41.8643 239.212 43.002 237.618L44.6299 238.78C43.5142 240.342 42.4014 242.004 41.3213 243.721Z" fill="#CCCCCC"/>
<path d="M52.3496 229.468L50.918 228.071C53.9697 224.944 57.1816 222.259 60.4639 220.091L61.5664 221.76C58.4028 223.849 55.3018 226.442 52.3496 229.468ZM102.245 216.844C99.8569 216.844 97.6812 216.538 96.0522 216.271L96.3755 214.298C98.0259 214.568 100.014 214.844 102.245 214.844C104.216 214.844 106.153 214.627 108.167 214.182L108.598 216.135C106.441 216.612 104.363 216.844 102.245 216.844ZM72.3188 216.579L71.7173 214.672C73.8657 213.994 76.0913 213.486 78.332 213.162C80.2564 212.883 82.0962 212.748 83.9561 212.748H84.0791V214.748H83.9561C82.1929 214.748 80.4473 214.876 78.6187 215.141C76.4844 215.45 74.3643 215.934 72.3188 216.579ZM119.99 210.799L118.712 209.261C121.472 206.969 123.45 204.197 125.544 201.262L126.38 200.094L128.003 201.263L127.172 202.423C125 205.467 122.949 208.342 119.99 210.799ZM136.029 192.461L134.799 190.884C137.495 188.781 140.541 187.076 144.11 185.673C144.718 185.434 145.299 185.221 145.856 185.031L146.502 186.923C145.972 187.104 145.42 187.307 144.842 187.535C141.454 188.866 138.571 190.478 136.029 192.461ZM160.174 185.515C159.501 185.515 158.863 185.508 158.25 185.501L158.273 183.501C158.9 183.509 159.555 183.51 160.247 183.515C162.601 183.515 165.878 183.448 170.375 182.927L170.605 184.914C165.96 185.452 162.631 185.508 160.174 185.515ZM182.771 182.895L182.375 180.936C185.967 180.209 190.146 179.344 194.283 178.277L194.783 180.213C190.599 181.293 186.389 182.164 182.771 182.895ZM206.564 176.422L205.816 174.567C209.826 172.95 213.308 171.127 216.461 168.992L217.583 170.648C214.311 172.863 210.707 174.752 206.564 176.422ZM226.771 162.131L225.148 160.962C225.707 160.187 226.189 159.432 226.655 158.702C228.032 156.545 229.457 154.315 232.848 151.578L233.085 151.388L234.324 152.958L234.104 153.134C230.966 155.667 229.691 157.664 228.341 159.778C227.86 160.532 227.362 161.311 226.771 162.131ZM244.713 147.131L243.984 145.269C247.548 143.871 251.574 142.747 255.95 141.926L256.319 143.892C252.066 144.689 248.162 145.779 244.713 147.131Z" fill="#CCCCCC"/>
<path d="M268.543 142.423L268.418 140.427C270.361 140.305 272.393 140.225 274.457 140.188L274.493 142.188C272.458 142.224 270.457 142.303 268.543 142.423Z" fill="#CCCCCC"/>
<path d="M63.624 73.8591H35.5639C34.1539 73.8591 33.0039 75.0092 33.0039 76.4191C33.0039 77.8391 34.1539 78.9891 35.5639 78.9891H63.624C65.0339 78.9891 66.184 77.8391 66.184 76.4191C66.184 75.0092 65.0339 73.8591 63.624 73.8591Z" fill="#E6E6E6"/>
<path d="M110.624 73.8591H82.5639C81.1539 73.8591 80.0039 75.0092 80.0039 76.4191C80.0039 77.8391 81.1539 78.9891 82.5639 78.9891H110.624C112.034 78.9891 113.184 77.8391 113.184 76.4191C113.184 75.0092 112.034 73.8591 110.624 73.8591Z" fill="#E6E6E6"/>
<path d="M157.624 73.8591H129.564C128.154 73.8591 127.004 75.0092 127.004 76.4191C127.004 77.8391 128.154 78.9891 129.564 78.9891H157.624C159.034 78.9891 160.184 77.8391 160.184 76.4191C160.184 75.0092 159.034 73.8591 157.624 73.8591Z" fill="#E6E6E6"/>
<path d="M287.977 242.188H32.9766V244.188H287.977V242.188Z" fill="#E6E6E6"/>
<path d="M274.507 96.188C256.357 96.6579 242.817 101.998 234.237 112.038C231.067 115.758 229.777 118.688 228.417 121.788C227.067 124.848 225.687 127.998 222.477 132.108V128.708C224.467 125.788 225.537 123.348 226.587 120.978C228.007 117.738 229.357 114.678 232.717 110.748C241.677 100.248 255.717 94.678 274.447 94.188L274.507 96.188Z" fill="#CCCCCC"/>
<path d="M228.415 121.788C227.065 124.848 225.685 127.998 222.475 132.108C222.095 132.598 221.685 133.108 221.245 133.638C209.665 147.408 194.195 151.928 181.755 155.568C180.975 155.798 180.215 156.008 179.475 156.208C168.415 159.208 162.355 159.098 157.845 159.028C153.315 158.948 150.325 158.898 144.975 161.958C135.165 167.548 131.145 175.728 127.255 183.638C123.245 191.778 119.465 199.468 109.825 203.078C103.135 205.578 98.4347 204.338 93.4647 203.038C89.1946 201.908 81.4989 174.094 74.6847 170.038C60.6147 172.988 52.0647 218.968 41.3947 243.588L39.5547 242.788C50.5047 217.548 59.5247 171.178 74.2646 168.078C80.8347 166.698 89.4847 199.918 93.9747 201.098C98.6346 202.328 103.025 203.478 109.125 201.198C118.025 197.878 121.465 190.868 125.455 182.758C129.295 174.958 133.645 166.118 143.975 160.218C149.805 156.888 153.195 156.948 157.875 157.028C162.335 157.108 168.355 157.208 179.475 154.138C180.035 153.978 180.605 153.818 181.195 153.648C193.375 150.088 208.525 145.658 219.705 132.358C220.805 131.048 221.715 129.838 222.475 128.708C224.465 125.788 225.535 123.348 226.585 120.978C228.005 117.738 229.775 118.688 228.415 121.788Z" fill="#3E3E41"/>
<path d="M121.777 350.568C120.985 347.812 119.63 345.461 118.016 343.784L112.152 317.054L99.3711 320.185L106.695 346.962C106.214 349.228 106.31 351.933 107.102 354.689C108.91 360.986 113.661 365.169 117.714 364.031C121.766 362.893 123.585 356.865 121.777 350.568Z" fill="#FFB6B6"/>
<path d="M120.009 175.227C120.009 175.227 99.8248 174.814 94.6924 189.513C90.0209 202.892 84.483 239.648 87.4767 241.772L100.219 332.257L118.39 329.761L113.727 221.192L120.009 175.227Z" fill="#3E3E41"/>
<path d="M213.475 343.188L209.895 438.188H162.395L160.475 395.618L152.035 438.188H101.125L107.475 365.008L114.035 349.618L118.475 339.188L213.475 343.188Z" fill="#2F2E41"/>
<path d="M175.477 157.188L142.477 155.188L131.477 169.188L107.477 178.188L118.477 285.188L113.477 349.188C113.477 349.188 183.477 405.188 213.477 343.188L205.477 268.188L207.477 181.188L184.477 171.188L175.477 157.188Z" fill="#3E3E41"/>
<path d="M239.006 132.849C239.364 136.316 238.909 139.577 237.862 142.191L243.359 175.003L227.669 177.162L223.782 143.645C222.223 141.3 221.112 138.201 220.754 134.734C219.936 126.814 223.358 119.971 228.399 119.451C233.439 118.93 238.188 124.929 239.006 132.849Z" fill="#FFB6B6"/>
<path d="M211.678 184.945C206.269 175.7 192.852 174.829 186.843 183.695C185.2 186.119 185.658 188.843 185.266 192.117C183.601 206.013 210.23 247.076 228.656 251.805C231.074 252.425 232.451 255.033 234.892 255.558C242.121 257.111 248.853 251.373 248.462 243.989L243.457 149.281L222.43 156.453L223.776 205.623L211.678 184.945Z" fill="#3E3E41"/>
<path d="M162.4 152.6C178.453 152.6 191.467 139.586 191.467 123.532C191.467 107.479 178.453 94.4646 162.4 94.4646C146.346 94.4646 133.332 107.479 133.332 123.532C133.332 139.586 146.346 152.6 162.4 152.6Z" fill="#FFB6B6"/>
<path d="M189.476 102.188C189.226 102.248 193.303 98.2747 193.476 98.1879C197.476 96.1879 193.366 115.738 190.476 115.188C183.366 113.838 180.296 111.158 177.536 117.848C176.766 119.708 176.286 121.808 174.786 123.138C172.726 124.948 169.306 124.798 167.626 126.958C166.276 128.698 166.666 131.258 167.666 133.218C168.666 135.188 170.186 136.858 171.096 138.868C172.116 141.128 167.766 148.318 166.106 152.358V152.368L166.096 152.392C165.655 153.451 164.607 150.399 163.5 150.094C162.176 149.729 160.225 152.856 158.116 152.288C158.106 152.288 158.096 152.278 158.086 152.278C156.076 151.718 153.836 151.118 151.616 150.518H151.606C145.356 148.818 143.776 151.258 143.476 151.188L139.596 147.128C138.265 146.158 138.415 143.028 137.476 142.188C136.708 141.5 134.794 143.089 134.23 142.428C131.463 139.188 130.827 135.947 129.196 129.548C127.706 123.698 124.616 106.188 130.966 105.398C136.956 104.648 132.576 96.3079 138.606 96.6179C138.246 95.0978 138.916 93.4678 140.006 92.3478C141.086 91.2178 142.526 90.5178 143.976 89.9178C151.126 86.9979 149.936 84.4879 157.476 86.1879C158.226 85.1379 169.116 85.8378 170.476 86.1879C170.576 86.2078 167.106 87.0379 172.476 86.1879C172.276 87.4179 175.676 87.9579 175.476 89.1879C176.226 88.1779 184.286 93.9778 184.476 95.1879C184.726 96.6979 182.446 95.9279 183.966 96.1578C184.866 96.2978 186.406 98.1279 186.256 99.0378C186.906 98.1578 187.556 97.2878 188.216 96.4078C188.336 96.4178 188.446 96.4379 188.566 96.4578C191.606 97.0378 188.121 106.976 188.246 103.878C188.476 98.1879 192.506 101.518 189.476 102.188Z" fill="#2F2E41"/>
<path d="M300.835 256.899C301.059 257.451 301.832 257.451 302.056 256.899C303.617 253.05 305.84 248.739 308.258 245.445C308.646 244.917 308.112 244.212 307.497 244.435L302.313 246.31V214.224H300.578V246.31L295.393 244.435C294.778 244.212 294.244 244.917 294.631 245.444C297.049 248.739 299.273 253.05 300.835 256.899Z" fill="#3F3D56"/>
<path d="M334.825 289.937C334.658 290.508 335.263 290.989 335.781 290.696C339.398 288.653 343.82 286.659 347.762 285.583C348.394 285.411 348.414 284.527 347.794 284.319L342.569 282.564L362.523 257.437L361.164 256.358L341.21 281.485L338.316 276.791C337.972 276.234 337.116 276.454 337.091 277.108C336.936 281.192 335.996 285.95 334.825 289.937Z" fill="#3F3D56"/>
<path d="M318.591 311.349H284.87C282.776 311.349 281.073 309.646 281.073 307.552C276.614 294.521 276.702 281.751 281.073 269.229C281.073 267.135 282.776 265.432 284.87 265.432H318.591C320.685 265.432 322.388 267.135 322.388 269.229V307.552C322.388 309.646 320.685 311.349 318.591 311.349Z" fill="#E6E6E6"/>
<path d="M292.094 266.563C286.631 266.563 282.203 270.992 282.203 276.454V306.739C282.203 308.66 283.761 310.218 285.682 310.218H304.33C313.678 310.218 321.256 302.64 321.256 293.292V270.042C321.256 268.121 319.698 266.563 317.777 266.563H292.094Z" fill="white"/>
<path d="M309.584 277.7H293.796C293.398 277.7 293.074 277.376 293.074 276.978C293.074 276.58 293.398 276.257 293.796 276.257H309.584C309.982 276.257 310.306 276.58 310.306 276.978C310.306 277.376 309.982 277.7 309.584 277.7Z" fill="#E6E6E6"/>
<path d="M309.584 293.093H293.796C293.398 293.093 293.074 292.769 293.074 292.371C293.074 291.973 293.398 291.649 293.796 291.649H309.584C309.982 291.649 310.306 291.973 310.306 292.371C310.306 292.769 309.982 293.093 309.584 293.093Z" fill="#E6E6E6"/>
<path d="M318.055 285.402H285.323C284.925 285.402 284.602 285.078 284.602 284.68C284.602 284.282 284.925 283.958 285.323 283.958H318.055C318.453 283.958 318.777 284.282 318.777 284.68C318.777 285.078 318.453 285.402 318.055 285.402Z" fill="#E6E6E6"/>
<path d="M318.442 299.351H304.784C304.386 299.351 304.062 299.027 304.062 298.629C304.062 298.231 304.386 297.908 304.784 297.908H318.442C318.84 297.908 319.164 298.231 319.164 298.629C319.164 299.027 318.84 299.351 318.442 299.351Z" fill="#E6E6E6"/>
<path d="M12.4633 24.7224C19.3466 24.7224 24.9266 19.26 24.9266 12.5217C24.9266 5.78348 19.3466 0.321045 12.4633 0.321045C5.58 0.321045 0 5.78348 0 12.5217C0 19.26 5.58 24.7224 12.4633 24.7224Z" fill="#3E3E41"/>
<path d="M112.376 8.34784H45.2911C42.9897 8.34784 41.1172 6.47535 41.1172 4.17392C41.1172 1.87249 42.9897 0 45.2911 0H112.376C114.677 0 116.55 1.87249 116.55 4.17392C116.55 6.47535 114.677 8.34784 112.376 8.34784Z" fill="#F2F2F2"/>
<path d="M164.729 22.475H45.2911C42.9897 22.475 41.1172 20.6025 41.1172 18.3011C41.1172 15.9997 42.9897 14.1272 45.2911 14.1272H164.729C167.031 14.1272 168.903 15.9997 168.903 18.3011C168.903 20.6025 167.031 22.475 164.729 22.475Z" fill="#F2F2F2"/>
</svg>
